<svg xmlns="http://www.w3.org/2000/svg" viewBox="0 0 320 210" role="img" aria-hidden="true"><defs><linearGradient id="bg" x1="0" y1="0" x2="1" y2="1"><stop offset="0" stop-color="#f8fbff"/><stop offset="1" stop-color="#eef4fb"/></linearGradient></defs><rect width="320" height="210" rx="24" fill="url(#bg)"/><circle cx="258" cy="42" r="36" fill="#fff1e7"/><g fill="none" stroke="#073b82" stroke-width="5" stroke-linecap="round" stroke-linejoin="round"><path d="M86 66l58 58"/><path d="M78 58l24 2 12 12-22 22-12-12-2-24Z"/><path d="M132 112l52 52"/><path d="M208 60c18 18 18 46 0 64l-14-14-26 26-20-20 26-26-14-14c18-18 30-24 48-16Z"/></g><g fill="none" stroke="#ff6a00" stroke-width="5" stroke-linecap="round" stroke-linejoin="round"><path d="M114 144l-24 24"/><path d="M204 140l22 22"/></g></svg>